
        <svg xmlns="http://www.w3.org/2000/svg" xmlns:xlink="http://www.w3.org/1999/xlink" version="1.1" width="3157.8947368421054" height="1184.2105263157894" viewBox="0 0 3157.8947368421054 1184.2105263157894">
			
			<g transform="scale(7.894736842105263) translate(10, 10)">
				<defs id="SvgjsDefs3782"/><g id="SvgjsG3783" featureKey="rootContainer" transform="matrix(1,0,0,1,0,0)" fill="#fff"><rect width="380" height="130" rx="10"/></g><g id="SvgjsG3784" featureKey="symbolFeature-0" transform="matrix(0.21367521367521367,0,0,0.21367521367521367,15.299145299145298,10.299145299145298)" fill="#000000"><g xmlns="http://www.w3.org/2000/svg"><g><g><g><path d="M321.714,340c-0.706,0-1.411-0.188-2.039-0.559c-1.216-0.721-1.961-2.028-1.961-3.441v-41H36c-2.209,0-4-1.791-4-4      s1.791-4,4-4h285.714c2.209,0,4,1.791,4,4v38.248L477.675,246l-151.961-83.248V201c0,2.209-1.791,4-4,4h-230      c-2.209,0-4-1.791-4-4s1.791-4,4-4h226v-41c0-1.413,0.745-2.721,1.961-3.441c1.216-0.72,2.722-0.746,3.961-0.067l164.286,90      c1.281,0.702,2.078,2.047,2.078,3.508s-0.797,2.806-2.078,3.508l-164.286,90C323.036,339.836,322.375,340,321.714,340z"/></g><g><path d="M256,250H26c-2.209,0-4-1.791-4-4s1.791-4,4-4h230c2.209,0,4,1.791,4,4S258.209,250,256,250z"/></g></g><g><path d="M256,490c-62.503,0-121.266-24.34-165.463-68.537C46.34,377.268,22,318.504,22,256     c0-62.503,24.34-121.266,68.537-165.463C134.734,46.34,193.497,22,256,22c62.504,0,121.267,24.34,165.463,68.537     C465.66,134.734,490,193.497,490,256c0,62.504-24.34,121.268-68.537,165.463C377.267,465.66,318.504,490,256,490z M256,30     C131.383,30,30,131.383,30,256s101.383,226,226,226s226-101.383,226-226S380.617,30,256,30z"/></g><g><path d="M256,490c-62.503,0-121.266-24.34-165.463-68.537C46.34,377.268,22,318.504,22,256     c0-62.503,24.34-121.266,68.537-165.463C134.734,46.34,193.497,22,256,22c62.504,0,121.267,24.34,165.463,68.537     C465.66,134.734,490,193.497,490,256c0,62.504-24.34,121.268-68.537,165.463C377.267,465.66,318.504,490,256,490z M256,30     C131.383,30,30,131.383,30,256s101.383,226,226,226s226-101.383,226-226S380.617,30,256,30z"/></g><g><path d="M256,490c-45.812,0-87.677-47.093-109.258-122.898c-6.302-22.139-10.648-45.938-12.917-70.736     c-0.201-2.2,1.419-4.146,3.619-4.348c2.197-0.211,4.146,1.418,4.348,3.619c2.224,24.305,6.478,47.612,12.645,69.272     C174.998,437.134,213.915,482,256,482c42.087,0,81.004-44.868,101.565-117.096c4.449-15.635,7.933-32.275,10.35-49.461     c0.308-2.188,2.336-3.711,4.518-3.404c2.188,0.309,3.712,2.33,3.404,4.518c-2.468,17.549-6.026,34.553-10.578,50.539     C343.679,442.905,301.813,490,256,490z"/></g><g><path d="M140.129,200c-0.186,0-0.373-0.013-0.562-0.04c-2.188-0.308-3.711-2.33-3.404-4.518     c2.466-17.542,6.025-34.546,10.578-50.538C168.321,69.094,210.187,22,256,22c45.813,0,87.68,47.096,109.26,122.908     c2.775,9.749,5.2,19.954,7.209,30.331c0.42,2.169-0.998,4.268-3.167,4.688c-2.163,0.419-4.267-0.998-4.687-3.167     c-1.966-10.153-4.338-20.133-7.05-29.662C337.005,74.869,298.087,30,256,30s-81.004,44.868-101.565,117.095     c-4.452,15.64-7.935,32.282-10.35,49.462C143.804,198.556,142.091,200,140.129,200z"/></g><g><path d="M256,200c-2.209,0-4-1.791-4-4V26c0-2.209,1.791-4,4-4s4,1.791,4,4v170C260,198.209,258.209,200,256,200z"/></g><g><path d="M256,490c-2.209,0-4-1.791-4-4V296c0-2.209,1.791-4,4-4s4,1.791,4,4v190C260,488.209,258.209,490,256,490z"/></g></g></g></g><g id="SvgjsG3785" featureKey="nameFeature-0" transform="matrix(1.2618151422683026,0,0,1.2618151422683026,137.12306301592997,18.668988795442946)" fill="#000000"><path d="M20.32 27.439999999999998 c1.76 1.24 2.8 3.08 2.8 5.24 c0 4.16 -3.84 7.32 -7.84 7.32 l-13 0 l0 -24.48 l12.2 0 c3.2 0 5.84 1.72 7.24 4.56 c0.4 0.92 0.6 1.84 0.6 2.8 c0 1.8 -0.72 3.28 -2 4.56 z M8.28 21.08 l0 3.92 l6.2 0 c1.04 0 1.84 -1 1.84 -2 c0 -1.04 -0.76 -1.92 -1.84 -1.92 l-6.2 0 z M8.28 30.560000000000002 l0 3.88 l7 0 c1.08 0 1.84 -0.88 1.84 -1.92 c0 -0.52 -0.2 -1 -0.56 -1.4 c-0.36 -0.36 -0.8 -0.56 -1.28 -0.56 l-7 0 z M39.172 34.64 c4.36 0 6.6 -2.8 6.6 -6.88 c0 -4.32 -2.4 -6.88 -6.6 -6.88 c-4.4 0 -6.6 2.8 -6.6 6.88 c0 4.24 2.44 6.88 6.6 6.88 z M39.172 40.2 c-7.52 0 -12.6 -5.12 -12.6 -12.44 c0 -7.56 5.32 -12.44 12.6 -12.44 c7.56 0 12.6 5.08 12.6 12.44 c0 7.6 -5.28 12.44 -12.6 12.44 z M71.984 15.52 l6 0 l0 24.48 l-6 0 l-9.6 -14.32 l0 14.32 l-6 0 l0 -24.48 l6 0 l9.6 14.32 l0 -14.32 z M82.036 15.52 l20.4 0 l0 5.56 l-7.2 0 l0 18.92 l-6 0 l0 -18.92 l-7.2 0 l0 -5.56 z M106.44800000000001 15.52 l18.2 0 l0 5.56 l-12.2 0 l0 3.92 l9.8 0 l0 5.56 l-9.8 0 l0 3.88 l12.2 0 l0 5.56 l-18.2 0 l0 -24.48 z M128.94 15.52 l6 0 l0 11.48 l7.88 -11.48 l7.44 0 l-8.56 12.24 l8.88 12.24 l-7.36 0 l-8.28 -11.52 l0 11.52 l-6 0 l0 -24.48 z M168.312 35.04 l-9 0 l-1.76 4.96 l-6.52 0 l9.8 -24.48 l6 0 l9.8 24.48 l-6.56 0 z M161.27200000000002 29.48 l5.08 0 l-2.52 -7.12 z"/></g><g id="SvgjsG3786" featureKey="sloganFeature-0" transform="matrix(0.8804058909027143,0,0,0.8804058909027143,173.3922027546448,73.98762900376947)" fill="#000000"><path d="M4.7559 17.4121 l4.4238 0 l0 2.5879 l-7.3535 0 l0 -14.111 l2.9297 0 l0 11.523 z M29.0185828125 20.19531 c-4.1504 0 -7.2168 -2.832 -7.2168 -7.2559 c0 -4.4336 3.0664 -7.2461 7.2168 -7.2461 c4.1406 0 7.207 2.8125 7.207 7.2461 c0 4.4238 -3.0664 7.2559 -7.207 7.2559 z M29.0185828125 17.5098 c2.4316 0 4.2969 -1.709 4.2969 -4.5703 c0 -2.8516 -1.8652 -4.5508 -4.2969 -4.5508 s-4.2969 1.6992 -4.2969 4.5508 c0 2.8613 1.8652 4.5703 4.2969 4.5703 z M56.376965625 20.19531 c-4.0723 0 -7.0703 -2.8125 -7.0703 -7.2168 c0 -4.4629 3.0664 -7.2852 7.2168 -7.2852 c2.7246 0 4.9805 1.2012 6.2109 3.3203 l-2.5684 1.3672 c-0.74219 -1.4453 -2.0703 -2.1387 -3.6426 -2.1387 c-2.4414 0 -4.2773 1.6797 -4.2773 4.668 c0 2.8809 1.7188 4.7363 4.3848 4.7363 c1.8066 0 3.4668 -0.89844 3.8672 -2.959 l-3.8574 0 l0 -2.3535 l6.6309 0 l0 7.666 l-2.3047 0 l0 -1.9531 c-0.9082 1.3379 -2.4316 2.1484 -4.5898 2.1484 z M77.6611609375 20 l0 -14.111 l2.9297 0 l0 14.111 l-2.9297 0 z M100.273465625 20.19531 c-3.0273 0 -5.3906 -1.4551 -5.8203 -4.1016 l3.0273 -0.69336 c0.19531 1.582 1.3574 2.4023 2.9102 2.4023 c1.1914 0 2.1387 -0.52734 2.1289 -1.7188 c-0.0097656 -1.3281 -1.5723 -1.748 -3.291 -2.2754 c-2.0703 -0.64453 -4.2871 -1.4063 -4.2871 -4.0039 c0 -2.627 2.1484 -4.1113 4.9805 -4.1113 c2.4805 0 4.9805 1.0059 5.5469 3.7109 l-2.832 0.70313 c-0.26367 -1.4063 -1.2109 -2.0215 -2.5391 -2.0215 c-1.1816 0 -2.1875 0.48828 -2.1875 1.6504 c0 1.084 1.3867 1.4453 2.9883 1.9238 c2.1289 0.64453 4.6484 1.4648 4.6484 4.2773 c0 2.998 -2.5098 4.2578 -5.2734 4.2578 z M127.7883203125 5.888999999999999 l0 2.5781 l-3.3496 0 l0 11.533 l-2.9004 0 l0 -11.533 l-3.3691 0 l0 -2.5781 l9.6191 0 z M141.35745 20 l0 -14.111 l2.9297 0 l0 14.111 l-2.9297 0 z M165.5322546875 20.19531 c-4.1504 0 -7.2168 -2.8223 -7.2168 -7.2559 s3.0664 -7.2461 7.2168 -7.2461 c3.1445 0 5.6641 1.6113 6.6699 4.2871 l-2.7344 0.99609 c-0.625 -1.6406 -2.1191 -2.5879 -3.9355 -2.5879 c-2.4316 0 -4.2969 1.6992 -4.2969 4.5508 s1.8652 4.5605 4.2969 4.5605 c1.8164 0 3.3105 -0.95703 3.9355 -2.5977 l2.7344 0.99609 c-1.0059 2.6758 -3.5254 4.2969 -6.6699 4.2969 z"/></g>
			</g>
		</svg>
	