<?xml version="1.0" encoding="UTF-8" standalone="no"?>
<svg
   viewBox="282.045 255.9948 1106.9241 322.9111"
   version="1.1"
   id="svg3"
   sodipodi:docname="Bonteka_logo.svg"
   inkscape:version="1.3.2 (091e20e, 2023-11-25, custom)"
   xmlns:inkscape="http://www.inkscape.org/namespaces/inkscape"
   xmlns:sodipodi="http://sodipodi.sourceforge.net/DTD/sodipodi-0.dtd"
   xmlns="http://www.w3.org/2000/svg"
   xmlns:svg="http://www.w3.org/2000/svg">
  <defs
     id="defs3" />
  <sodipodi:namedview
     id="namedview3"
     pagecolor="#ffffff"
     bordercolor="#000000"
     borderopacity="0.25"
     inkscape:showpageshadow="2"
     inkscape:pageopacity="0.0"
     inkscape:pagecheckerboard="0"
     inkscape:deskcolor="#d1d1d1"
     inkscape:zoom="2.0607795"
     inkscape:cx="694.39742"
     inkscape:cy="158.92044"
     inkscape:window-width="3840"
     inkscape:window-height="2066"
     inkscape:window-x="2149"
     inkscape:window-y="-11"
     inkscape:window-maximized="1"
     inkscape:current-layer="svg3" />
  <g
     transform="matrix(0.43000000715255726, 0, 0, 0.4300000071525574, 442.16575778220067, 417.4505468813526)"
     id="g2">
    <linearGradient
       id="SVGID_1"
       gradientUnits="userSpaceOnUse"
       gradientTransform="matrix(1 0 0 1 33.75 47.33)"
       x1="0"
       y1="0"
       x2="0"
       y2="750.9560041780744">
      <stop
         offset="0.3"
         style="stop-color:#455A64;"
         id="stop1" />
      <stop
         offset="1"
         style="stop-color:#34444b;"
         id="stop2" />
    </linearGradient>
    <path
       style="stroke: none; stroke-width: 5; stroke-dasharray: none; stroke-linecap: butt; stroke-dashoffset: 0; stroke-linejoin: round; stroke-miterlimit: 2; fill: url(#SVGID_1); fill-rule: evenodd; opacity: 1;"
       transform=" translate(-406.12, -422.81)"
       d="M 413.521 62.777 C 407.154 77.355 383.087 130.405 344.23 215.51800000000003 C 327.99800000000005 251.07200000000003 324.141 258.19500000000005 294.97200000000004 306.5 C 280.795 329.976 278.38500000000005 334.71 273.88100000000003 347.925 C 266.184 370.503 264.49800000000005 398.862 269.548 420.812 C 270.347 424.284 271 428.00600000000003 271 429.08500000000004 C 271 430.79300000000006 252.03300000000002 485.23 246.90800000000002 498.235 L 245.03900000000002 502.975 L 255.77 513.756 C 273.45 531.519 293.96500000000003 546.764 315 557.771 C 324.05 562.506 324.588 562.973 326.355 567.621 C 330.44300000000004 578.37 397.80400000000003 776.606 400.531 785.913 C 401.063 787.729 401.426 787.977 401.998 786.913 C 402.417 786.136 407.36199999999997 772.225 412.989 756 C 418.616 739.775 432.342 700.85 443.493 669.5 C 454.644 638.15 464.062 611.527 464.423 610.3389999999999 C 464.97 608.536 472 602.021 472 603.318 C 472 603.548 467.906 616.2429999999999 462.901 631.5269999999999 L 453.803 659.3169999999999 L 455.962 666.5889999999999 C 463.06 690.4989999999999 483.89099999999996 751.443 484.692 750.6419999999999 C 484.94 750.3939999999999 483.038 742.611 480.466 733.3449999999999 C 473.752 709.1569999999999 473.701 708.9579999999999 474.119 708.632 C 475.30600000000004 707.709 511.946 697.857 513.106 698.149 C 513.873 698.342 524.962 709.114 537.75 722.087 C 550.538 735.06 561 745.272 561 744.78 C 561 744.288 560.56 741.999 560.023 739.693 C 559.486 737.387 557.445 727.894 555.488 718.598 C 553.5310000000001 709.3019999999999 551.711 701.341 551.4430000000001 700.9069999999999 C 550.2330000000001 698.9499999999999 536.0000000000001 660.4029999999999 536.0000000000001 659.084 C 536.0000000000001 658.271 538.9830000000001 650.053 542.6280000000002 640.823 C 546.9510000000001 629.877 549.6460000000002 624.2769999999999 550.3780000000002 624.722 C 550.9950000000001 625.097 556.3520000000002 628.73 562.2830000000001 632.7959999999999 C 571.6810000000002 639.2379999999999 573.7240000000002 641.1709999999999 578.1880000000001 647.8439999999999 C 588.815 663.727 611.237 696 611.645 696 C 612.6659999999999 696 597.149 670.54 573.86 634 C 546.966 591.806 543 585.316 543 583.508 C 543 582.587 543.4 581.9830000000001 543.888 582.167 C 544.3770000000001 582.35 558.3960000000001 600.725 575.042 623 C 591.688 645.275 608.0360000000001 666.875 611.37 671 C 617.194 678.204 635.771 699.892 638.781 703 C 642.526 706.868 636.4559999999999 697.932 615.0559999999999 668.079 C 588.574 631.134 570 604.558 570 603.611 C 570 603.247 576.188 603.237 583.75 603.588 L 597.5 604.227 L 612.5 618.867 C 640.005 645.711 649.275 654.5129999999999 648.447 653 C 647.996 652.175 643.717 645.875 638.939 639 C 634.16 632.125 626.8739999999999 621.325 622.7489999999999 615 C 617.468 606.904 612.5379999999999 600.892 606.0959999999999 594.69 C 597.9699999999999 586.8670000000001 596.8789999999999 585.398 596.3549999999999 581.572 C 595.7109999999999 576.877 596.6529999999999 575.551 599.7769999999999 576.748 C 600.8559999999999 577.162 610.2349999999999 585.5680000000001 620.6199999999999 595.4300000000001 C 643.8139999999999 617.456 666.3469999999999 636.2550000000001 679.4999999999999 644.551 C 682.8069999999999 646.6370000000001 654.6909999999999 617.008 631.0689999999998 593.513 C 616.8559999999999 579.3770000000001 614.2899999999998 576.4110000000001 617.2499999999999 577.539 C 618.9069999999999 578.1709999999999 721.4119999999999 598.9209999999999 721.6579999999999 598.675 C 721.7639999999999 598.5699999999999 715.1539999999999 590.1619999999999 706.9709999999999 579.992 C 698.7879999999999 569.8209999999999 692.0719999999999 561.163 692.0459999999999 560.75 C 692.021 560.337 694.79 560 698.1999999999999 560 C 702.2909999999999 560 704.063 559.663 703.41 559.01 C 702.866 558.466 687.588 549.9929999999999 669.4599999999999 540.181 C 622.915 514.99 620.9999999999999 513.9150000000001 620.9999999999999 512.991 C 620.9999999999999 512.536 622.4999999999999 511.236 624.3339999999998 510.103 L 627.6679999999998 508.04200000000003 L 655.3219999999998 523.445 C 670.5309999999997 531.917 683.1319999999997 538.5450000000001 683.3239999999997 538.1740000000001 C 683.5149999999998 537.8030000000001 683.4079999999997 527.8560000000001 683.0859999999997 516.0690000000001 L 682.4999999999997 494.63700000000006 L 659.9999999999997 485.40900000000005 C 647.6249999999997 480.33400000000006 637.5839999999996 475.80300000000005 637.6859999999997 475.34100000000007 C 637.7879999999997 474.87800000000004 638.1529999999997 473.00000000000006 638.4969999999997 471.16600000000005 C 638.9859999999998 468.56000000000006 639.4899999999998 467.9750000000001 640.8109999999997 468.48600000000005 C 653.4699999999997 473.38500000000005 745.3709999999996 492.85400000000004 750.8239999999997 491.79200000000003 C 753.8709999999998 491.19800000000004 665.2239999999997 469.776 647.8419999999998 466.906 L 640.1839999999997 465.641 L 640.7219999999998 462.07 C 641.0179999999998 460.10699999999997 641.5389999999998 458.206 641.8799999999998 457.847 C 642.2209999999998 457.488 655.3069999999998 460.056 670.9599999999998 463.554 C 686.6129999999998 467.051 699.5089999999998 469.82 699.6159999999998 469.70599999999996 C 699.7239999999997 469.59299999999996 699.9669999999998 459.852 700.1559999999997 448.05999999999995 L 700.4999999999998 426.61999999999995 L 688.1269999999997 422.73299999999995 C 680.6629999999997 420.38699999999994 676.1169999999997 418.48299999999995 676.6679999999998 417.93199999999996 C 677.1879999999998 417.412 699.3179999999998 416.907 728.0409999999998 416.75899999999996 L 778.4999999999998 416.49999999999994 L 755.9999999999998 402.87299999999993 C 716.6349999999998 379.03099999999995 699.0579999999998 368.8279999999999 695.7339999999998 367.88999999999993 C 693.9549999999998 367.3879999999999 681.4749999999998 364.68799999999993 667.9999999999998 361.8909999999999 C 654.5249999999997 359.0929999999999 643.3129999999998 356.62299999999993 643.0829999999997 356.40199999999993 C 642.8539999999997 356.1809999999999 642.9109999999997 355.7559999999999 643.2089999999997 355.45699999999994 C 643.5079999999997 355.15899999999993 663.9449999999997 349.80099999999993 688.6259999999997 343.54999999999995 C 741.8799999999998 330.06399999999996 777.9849999999998 319.24799999999993 761.9999999999998 321.56999999999994 C 757.3459999999998 322.2459999999999 726.4609999999998 328.9869999999999 707.9469999999998 333.36799999999994 L 697.3929999999998 335.86499999999995 L 685.4639999999998 332.42699999999996 L 673.5339999999999 328.989 L 656.6789999999999 334.60699999999997 C 647.4089999999999 337.69699999999995 639.5059999999999 339.837 639.1159999999999 339.36199999999997 C 637.9929999999998 337.99399999999997 635.7669999999998 330.9 636.2949999999998 330.37199999999996 C 636.5579999999999 330.10799999999995 652.2369999999999 324.686 671.1369999999998 318.32099999999997 C 690.0369999999998 311.957 705.8619999999999 306.421 706.3039999999999 306.02 C 706.7459999999999 305.62 702.5169999999998 303.57 696.9059999999998 301.465 L 686.7039999999998 297.638 L 667.7459999999999 303.928 C 650.2959999999998 309.717 648.6599999999999 310.089 647.1739999999999 308.603 C 645.6879999999999 307.116 646.1549999999999 306.372 653.0519999999999 299.244 C 664.0409999999999 287.886 691.4839999999999 259.67 708.0509999999999 242.69500000000002 C 715.9979999999999 234.55200000000002 722.617 227.56300000000002 722.7599999999999 227.16400000000002 C 722.9029999999999 226.76600000000002 712.3279999999999 227.425 699.2599999999999 228.63100000000003 C 686.1919999999999 229.83600000000004 670.3209999999999 231.13900000000004 663.9909999999999 231.52500000000003 L 652.4819999999999 232.22800000000004 L 610.4999999999999 261.778 L 607.9999999999999 258.639 C 594.9679999999998 242.27300000000002 581.4449999999999 228.508 564.5359999999998 214.394 L 559.6179999999998 210.28900000000002 L 573.1069999999999 193.894 C 610.6 148.327 640.574 111 639.671 111 C 639.3900000000001 111 635.6360000000001 113.423 631.33 116.384 C 627.023 119.346 619.225 124.465 614 127.762 C 606.758 132.33 600.364 137.825 587.101 150.877 C 577.531 160.29500000000002 569.341 168 568.901 168 C 568.4609999999999 168 558.515 161.592 546.8 153.75900000000001 C 535.0849999999999 145.92600000000002 525.1809999999999 139.514 524.7919999999999 139.50900000000001 C 524.4029999999999 139.50400000000002 518.6239999999999 147.60000000000002 511.94999999999993 157.5 C 505.27699999999993 167.4 499.6429999999999 175.677 499.4309999999999 175.894 C 498.97599999999994 176.359 489.99999999999994 173.036 489.99999999999994 172.403 C 489.99999999999994 172.072 496.23799999999994 159.625 503.74799999999993 144.97299999999998 C 503.89699999999993 144.683 497.71399999999994 140.45399999999998 490.00899999999996 135.577 C 482.304 130.699 476 126.075 476 125.3 C 476 124.526 477.83 117.054 480.066 108.696 C 485.33599999999996 88.99799999999999 489.97299999999996 68.621 488.947 69.674 C 488.213 70.426 475.766 109.66400000000002 473.062 119.75 C 472.43600000000004 122.087 471.724 124 471.481 124 C 471.238 124 468.554 122.41 465.517 120.468 C 456.68399999999997 114.81700000000001 456.656 114.82000000000001 457.479 121.099 C 458.59499999999997 129.611 468.92699999999996 197.27100000000002 469.457 199.543 C 469.813 201.066 471.786 202.178 477.217 203.91500000000002 C 501.053 211.54200000000003 529.3389999999999 228.06000000000003 552.265 247.74 C 570.086 263.039 590.289 288.224 608.024 317.251 L 614.897 328.5 L 594.4480000000001 328.77 C 581.4860000000001 328.942 574.0000000000001 329.411 574.0000000000001 330.054 C 574.0000000000001 330.611 575.0710000000001 333.18899999999996 576.3810000000001 335.78299999999996 C 579.3020000000001 341.56999999999994 584.2570000000001 356.912 586.4620000000001 366.99999999999994 C 588.743 377.4309999999999 589.5830000000001 403.32399999999996 588.0390000000001 415.63399999999996 C 586.4710000000001 428.14799999999997 582.9810000000001 441.63499999999993 578.4290000000001 452.77899999999994 C 576.4700000000001 457.57599999999996 574.623 462.27199999999993 574.3260000000001 463.2149999999999 C 573.8230000000001 464.8089999999999 575.1940000000002 464.8859999999999 593.8930000000001 464.3069999999999 C 610.7960000000002 463.7839999999999 614.0000000000001 463.9079999999999 614.0000000000001 465.0899999999999 C 614.0000000000001 465.8639999999999 612.3970000000002 471.3069999999999 610.4380000000001 477.1869999999999 L 606.8760000000001 487.8769999999999 L 592.6880000000001 497.0669999999999 C 584.8850000000001 502.1219999999999 577.1680000000001 507.8869999999999 575.5390000000001 509.8789999999999 C 563.6690000000001 524.3979999999999 544.8350000000002 540.9869999999999 526.0000000000001 553.5129999999999 C 513.6890000000001 561.7009999999999 494.0000000000001 572.79 494.0000000000001 571.536 C 494.0000000000001 571.183 496.6450000000001 566.3059999999999 499.8770000000001 560.6969999999999 C 512.4510000000001 538.8789999999999 525.5410000000002 510.9459999999999 533.1180000000002 489.7619999999999 C 548.9590000000002 445.4749999999999 550.0800000000002 400.3529999999999 536.3940000000001 357.9999999999999 C 531.9960000000001 344.3919999999999 521.7260000000001 323.9999999999999 513.2280000000001 312.0019999999999 C 506.75700000000006 302.8669999999999 480.61300000000006 275.0539999999999 479.52200000000005 276.1439999999999 C 479.06000000000006 276.6069999999999 488.624 347.5429999999999 493.92900000000003 382.9999999999999 L 495.79900000000004 395.4999999999999 L 386.141 505.4999999999999 L 388.495 536.4999999999999 C 389.791 553.5499999999998 391.592 577.8499999999999 392.498 590.4999999999999 C 396.131 641.2109999999999 396.524 644.9319999999999 397.77799999999996 640.4999999999999 C 398.722 637.1639999999999 411.18299999999994 577.6529999999999 422.65399999999994 521.6969999999999 L 425.4839999999999 507.8939999999999 L 472.93999999999994 460.7089999999999 C 499.04099999999994 434.7569999999999 520.0369999999999 414.41899999999987 519.5959999999999 415.5119999999999 C 517.3919999999999 420.98899999999986 493.2109999999999 496.6899999999999 481.7909999999999 533.8679999999999 C 480.71499999999986 537.3699999999999 479.4999999999999 539.8449999999999 479.08999999999986 539.3679999999999 C 478.67999999999984 538.89 475.05499999999984 530.737 471.03499999999985 521.2499999999999 C 467.01399999999984 511.7619999999999 463.44899999999984 504.00799999999987 463.11199999999985 504.0169999999999 C 462.77499999999986 504.0269999999999 459.84599999999983 514.9389999999999 456.60199999999986 528.2669999999998 C 450.68199999999985 552.5919999999999 416.5509999999999 687.6049999999998 408.7789999999999 717.4409999999998 L 404.6269999999999 733.3809999999999 L 403.3849999999999 729.4409999999998 C 402.7019999999999 727.2729999999998 398.70299999999986 712.8999999999997 394.4969999999999 697.4999999999998 C 390.2919999999999 682.0999999999998 378.3679999999999 639.3499999999998 367.9989999999999 602.4999999999998 C 341.845 509.553 336 488.475 336 487.102 C 336 486.447 366.374 455.669 403.497 418.70599999999996 L 470.994 351.49999999999994 L 459.067 276.49999999999994 C 445.446 190.84399999999994 421.546 48.21299999999994 420.66700000000003 47.333999999999946 C 420.514 47.17999999999994 417.298 54.129999999999946 413.521 62.776999999999944 M 345.367 69.74999999999994 C 345.64300000000003 70.71299999999994 346.61600000000004 75.32499999999995 347.53000000000003 79.99999999999994 C 348.444 84.67499999999994 350.499 94.04099999999994 352.096 100.81399999999994 C 353.693 107.58599999999994 355 113.89899999999994 355 114.84199999999994 C 355 116.10299999999994 352.555 117.41699999999994 345.75 119.81099999999994 C 332.626 124.42899999999993 333.093 123.91799999999994 336.414 130.01999999999992 L 339.222 135.17899999999992 L 336.395 144.5889999999999 C 334.84 149.7649999999999 333.328 153.9969999999999 333.034 153.9929999999999 C 332.74 153.98999999999992 325.44 143.5269999999999 316.811 130.7429999999999 C 308.18199999999996 117.9589999999999 295.51099999999997 99.27299999999991 288.654 89.2169999999999 L 276.187 70.9339999999999 L 275.56100000000004 74.7169999999999 C 274.961 78.3389999999999 267.437 132.7049999999999 262.83500000000004 166.6729999999999 L 260.64300000000003 182.8459999999999 L 265.822 189.1689999999999 C 268.67 192.6459999999999 271 195.7629999999999 271 196.0959999999999 C 271 196.42799999999988 268.188 198.3719999999999 264.75 200.41599999999988 L 258.5 204.1319999999999 L 253.5 198.3359999999999 C 210.952 149.0149999999999 199.65800000000002 136.8579999999999 185.74200000000002 125.4039999999999 C 180.35174858444452 120.96873406106474 174.96374789090515 116.53073348981557 169.5779999999957 112.09000000000323 C 164.88000000000002 108.20299999999989 171.19700000000003 116.20499999999988 200.98200000000003 151.8719999999999 C 211.71700000000004 164.72599999999989 222.23800000000003 177.4249999999999 224.36200000000002 180.0919999999999 L 228.22400000000002 184.9409999999999 L 226.56900000000002 198.6799999999999 C 225.65800000000002 206.23699999999988 224.764 212.5689999999999 224.58200000000002 212.7519999999999 C 224.39900000000003 212.93399999999988 211.03100000000003 201.5259999999999 194.87500000000003 187.3999999999999 C 162.10400000000004 158.7469999999999 145.12700000000004 144.5399999999999 144.45900000000003 145.20799999999988 C 143.74900000000002 145.9169999999999 171.07700000000003 172.3629999999999 201.50000000000003 200.40899999999988 C 216.90000000000003 214.60499999999988 229.57800000000003 226.50899999999987 229.67200000000003 226.85999999999987 C 229.76700000000002 227.21199999999988 228.33400000000003 228.75599999999986 226.48800000000003 230.29099999999988 L 223.13200000000003 233.08199999999988 L 192.91200000000003 231.52799999999988 C 176.29100000000003 230.67399999999986 162.49700000000004 230.16999999999987 162.25900000000004 230.40799999999987 C 161.72100000000003 230.94499999999988 162.51400000000004 231.43999999999988 184.00000000000006 243.97699999999986 C 193.62500000000006 249.59299999999985 201.80600000000007 254.48299999999986 202.17900000000006 254.84399999999985 C 202.55200000000005 255.20499999999984 202.03800000000007 256.5029999999999 201.03600000000006 257.72799999999984 L 199.21500000000006 259.95599999999985 L 180.35700000000006 254.03499999999985 C 143.71900000000005 242.53199999999987 86.57000000000005 225.09699999999987 86.32000000000005 225.34599999999986 C 86.18100000000005 225.48499999999987 98.49900000000005 240.20199999999986 113.69400000000005 258.04999999999984 L 141.32000000000005 290.49999999999983 L 148.21100000000004 304.8659999999998 C 152.00000000000003 312.7679999999998 154.94700000000003 319.38699999999983 154.75800000000004 319.5749999999998 C 154.40700000000004 319.9259999999998 144.82200000000003 317.29299999999984 99.56800000000004 304.4119999999998 C 85.30600000000004 300.3519999999998 73.48300000000003 297.1839999999998 73.29500000000004 297.3719999999998 C 72.94600000000004 297.7199999999998 130.34900000000005 317.58699999999976 155.29700000000003 325.7529999999998 C 166.11200000000002 329.2919999999998 169.02400000000003 330.6179999999998 168.76600000000002 331.8839999999998 C 168.32200000000003 334.0679999999998 166.663 333.8449999999998 150.90400000000002 329.4879999999998 L 137.30800000000002 325.72899999999976 L 119.78100000000002 330.52199999999976 L 102.25300000000001 335.31499999999977 L 73.05300000000001 328.0639999999998 C 56.99300000000001 324.0759999999998 43.61700000000001 321.0499999999998 43.32800000000001 321.33899999999977 C 42.88600000000001 321.77999999999975 52.42500000000001 324.9559999999998 83 334.5449999999998 C 85.475 335.3209999999998 103.855 340.6579999999998 123.844 346.4049999999998 C 143.832 352.1519999999998 160.452 357.1189999999998 160.777 357.4439999999998 C 161.101 357.7679999999998 160.83499999999998 358.56499999999977 160.18599999999998 359.21399999999977 C 159.278 360.1219999999998 156.86499999999998 359.88999999999976 149.753 358.21399999999977 C 133.536 354.38999999999976 103.70599999999999 347.9589999999998 103.46799999999999 348.23399999999975 C 102.33399999999999 349.54199999999975 93.10799999999999 370.44099999999975 93.49399999999999 370.82699999999977 C 93.77299999999998 371.10599999999977 106.22099999999999 372.37999999999977 121.15799999999999 373.6579999999998 C 136.095 374.9369999999998 148.433 376.0999999999998 148.576 376.24299999999977 C 148.719 376.38599999999974 123.56 385.0039999999998 92.66799999999999 395.39499999999975 C 61.775999999999996 405.78499999999974 35.37499999999999 414.87899999999973 33.99999999999999 415.6029999999997 C 31.907999999999994 416.7049999999997 41.916 416.9259999999997 95.25 416.95999999999975 L 159 417 L 159 419.433 C 159 422.49399999999997 158.673 422.58 141.228 424.13599999999997 C 133.37800000000001 424.83599999999996 126.56700000000001 425.655 126.09200000000001 425.955 C 125.10100000000001 426.58 115.763 455.096 116.35500000000002 455.68899999999996 C 116.57000000000002 455.90299999999996 126.97900000000001 454.205 139.48700000000002 451.91499999999996 C 158.36 448.45899999999995 162.38100000000003 447.98499999999996 163.127 449.126 C 163.621 449.88199999999995 163.845 451.17499999999995 163.62300000000002 452 C 160.9 462.134 155.99300000000002 479.324 155.77800000000002 479.484 C 155.62500000000003 479.59799999999996 135.25000000000003 487.45 110.50000000000003 496.935 C 62.30200000000003 515.404 40.70400000000002 524.037 41.272000000000034 524.606 C 41.70300000000003 525.036 60.78000000000003 520.009 74.50000000000003 515.85 C 83.22900000000003 513.203 161.83200000000002 488.331 164.50000000000003 487.37100000000004 C 165.88500000000002 486.872 170.36700000000002 494.033 169.32300000000004 495.07700000000006 C 168.85800000000003 495.54200000000003 152.28200000000004 503.51300000000003 132.48900000000003 512.7900000000001 C 96.92600000000003 529.4580000000001 87.89000000000004 533.8700000000001 89.14200000000002 533.9560000000001 C 90.77100000000003 534.0680000000001 143.33200000000002 513.3730000000002 161.64100000000002 505.41000000000014 C 167.21800000000002 502.9850000000001 172.019 501.0000000000001 172.30900000000003 501.0000000000001 C 173.38700000000003 501.0000000000001 177.35600000000002 508.3820000000001 176.44600000000003 508.6950000000001 C 175.92600000000002 508.8730000000001 171.15600000000003 511.6030000000001 165.84600000000003 514.7600000000001 C 156.80600000000004 520.1350000000001 155.21900000000002 521.6120000000001 140.87100000000004 538.0000000000001 C 130.20024046112349 550.160510588073 119.47747555599798 562.2752882463631 108.70300000000037 574.3439999999997 C 99.43700000000003 584.7090000000002 92.02400000000003 593.3570000000002 92.22900000000003 593.5630000000002 C 92.43500000000003 593.7680000000003 109.80500000000004 591.4890000000003 130.83000000000004 588.4980000000002 C 161.91800000000003 584.0760000000001 228.13900000000004 575.1020000000002 240.29100000000005 573.6640000000002 C 242.19100000000006 573.4400000000002 242.98900000000006 573.7520000000002 242.79100000000005 574.6410000000002 C 242.63100000000006 575.3590000000002 235.88500000000005 583.3350000000002 227.80100000000004 592.3650000000002 L 213.10200000000003 608.7830000000002 L 219.52500000000003 621.1420000000003 C 223.05900000000003 627.9390000000003 225.96100000000004 634.2160000000002 225.97500000000002 635.0910000000002 C 225.98900000000003 635.9660000000002 223.38700000000003 640.4660000000002 220.19400000000002 645.0910000000002 C 207.98000000000002 662.7830000000002 183.00900000000001 700.1230000000003 181.96200000000002 702.2610000000002 L 180.866 704.5000000000002 L 182.68300000000002 702.3820000000002 C 195.28900000000002 687.6900000000002 222.24300000000002 652.0580000000002 242.92200000000003 622.7500000000002 C 253.87500000000003 607.2260000000002 253.90500000000003 607.2260000000002 261.932 622.6930000000002 C 265.269 629.1250000000002 268 634.8460000000002 268 635.4080000000002 C 268 635.9690000000003 266.258 639.8190000000002 264.129 643.9640000000003 C 261.272 649.5250000000003 260.103 653.2030000000003 259.66700000000003 658.0000000000002 C 257.24100000000004 684.7030000000002 251.91200000000003 737.9640000000002 251.46300000000002 740.0000000000002 C 250.76600000000002 743.1610000000002 251.96200000000002 741.7960000000003 284 702.8320000000002 L 308.5 673.0360000000002 L 314.891 656.7680000000001 C 318.406 647.8210000000001 321.636 640.1050000000001 322.06800000000004 639.6230000000002 C 322.50100000000003 639.1400000000002 323.369 640.6570000000002 323.99800000000005 642.9930000000002 C 325.03800000000007 646.8530000000002 324.766 648.5560000000002 321.01200000000006 661.6960000000001 C 318.38500000000005 670.8910000000002 317.2130000000001 676.5800000000002 317.79300000000006 677.3260000000001 C 323.2830000000001 684.3980000000001 338.34100000000007 702.5610000000001 338.88200000000006 702.7640000000001 C 339.95200000000006 703.1660000000002 345.4560000000001 678.1290000000001 345.42600000000004 673.0000000000001 C 345.4080000000001 669.9580000000001 343.08700000000005 662.1820000000001 338.261 649.0000000000001 C 334.33500000000004 638.2750000000001 326.819 617.3950000000001 321.55800000000005 602.5990000000002 C 316.29800000000006 587.8040000000002 311.50700000000006 575.1110000000001 310.91200000000003 574.3940000000001 C 310.31600000000003 573.6760000000002 306.04900000000004 571.0450000000001 301.42900000000003 568.5470000000001 C 278.00100000000003 555.8800000000001 259.78400000000005 541.9550000000002 238.00000000000003 520.0630000000001 C 206.21200000000002 488.1180000000001 191.00000000000003 470.30700000000013 191.00000000000003 465.0320000000001 C 191.00000000000003 464.3570000000001 197.95200000000003 464.0000000000001 211.10700000000003 464.0000000000001 C 229.87000000000003 464.0000000000001 231.16500000000002 463.8830000000001 230.47800000000004 462.2500000000001 C 226.33600000000004 452.40800000000013 221.09500000000003 433.7790000000001 218.87200000000004 421.0000000000001 C 216.91100000000003 409.7230000000001 217.23600000000005 381.64100000000013 219.46300000000005 370.0000000000001 C 221.50700000000006 359.3120000000001 226.43200000000004 343.3760000000001 230.35800000000006 334.7500000000001 L 232.97500000000005 329.0000000000001 L 212.98700000000005 329.0000000000001 C 201.99400000000006 329.0000000000001 193.00000000000006 328.8200000000001 193.00000000000006 328.5990000000001 C 193.00000000000006 326.7360000000001 219.29200000000006 287.0800000000001 227.74700000000007 276.1930000000001 C 249.31900000000007 248.4130000000001 283.3180000000001 223.5220000000001 320.77600000000007 208.0860000000001 L 327.05300000000005 205.50000000000009 L 349.02600000000007 158.2050000000001 C 361.112 132.192 371 110.748 371 110.551 C 371 110.354 368.694 111.068 365.876 112.139 C 363.058 113.21 360.59 113.92399999999999 360.392 113.725 C 360.193 113.527 358.655 108.66999999999999 356.973 102.93199999999999 C 352.688 88.315 345.929 68 345.35 68 C 345.083 68 345.091 68.787 345.367 69.75 M 409.11 129.09300000000002 C 406.695 135.91700000000003 395.291 165.125 383.766 194 L 362.81300000000005 246.5 L 342.54900000000004 280 C 314.86800000000005 325.762 298.48300000000006 353.181 297.08900000000006 356.076 C 296.4460000000001 357.40900000000005 306.53700000000003 347.70000000000005 319.51200000000006 334.5 C 335.119 318.623 342.7130000000001 311.515 341.9510000000001 313.5 C 341.31700000000006 315.15 338.7990000000001 321.675 336.3570000000001 328 C 333.9140000000001 334.325 329.50200000000007 345.8 326.5520000000001 353.5 C 319.5900000000001 371.671 285.53600000000006 457.26800000000003 279.6160000000001 471.476 L 275.0420000000001 482.453 L 346.5850000000001 410.976 C 385.9330000000001 371.664 418.9720000000001 338.343 420.0040000000001 336.93 C 421.82000000000005 334.442 421.83600000000007 333.093 420.50000000000006 294.93 C 419.74100000000004 273.243 418.17300000000006 227.60000000000002 417.01500000000004 193.5 C 415.857 159.4 414.59200000000004 128.167 414.20500000000004 124.093 L 413.50000000000006 116.685 L 409.11000000000007 129.093 M 662 170.198 C 641.518 186.494 614.048 209.113 613.332 210.27100000000002 C 612.146 212.191 659.882 174.09000000000003 670.5 164.64200000000002 C 677.596 158.32900000000004 673.799 160.81000000000003 662 170.19800000000004 M 197.5 592.482 C 189.8 594.828 180.302 597.704 176.393 598.8729999999999 L 169.286 601 L 164.995 610.75 C 162.636 616.112 158.097 626.021 154.91 632.768 C 151.722 639.515 149.721 644.69 150.462 644.268 C 151.52499999999998 643.663 197.384 603.46 211.476 590.779 C 215.431 587.221 214.331 587.355 197.5 592.482 M 350.61199999999997 689.742 C 346.856 701.2389999999999 328.49699999999996 777.8299999999999 329.30299999999994 778.637 C 330.34399999999994 779.678 352.37299999999993 700.2109999999999 353.59299999999996 691.012 C 354.455 684.5089999999999 352.58199999999994 683.7109999999999 350.61199999999997 689.742 M 454.07099999999997 688.558 C 453.88599999999997 693.926 484.82599999999996 801.0219999999999 485.755 798.234 C 485.943 797.671 484.49399999999997 790.563 482.53499999999997 782.438 C 471.91599999999994 738.389 454.349 680.45 454.07099999999997 688.558"
       stroke-linecap="round"
       id="path2" />
  </g>
  <g
     transform="matrix(2.6800001,0,0,0.06757207,980.51572,442.05895)"
     id="g3">
    <rect
       style="opacity:1;fill:#ff6f00;fill-rule:evenodd;stroke:none;stroke-width:1;stroke-linecap:butt;stroke-linejoin:round;stroke-miterlimit:1.41;stroke-dasharray:none;stroke-dashoffset:0"
       x="-136.255"
       y="-136.255"
       rx="0"
       ry="0"
       width="272.51001"
       height="272.51001"
       id="rect2" />
  </g>
  <path
     d="M 680.46 418.11 L 615.81 417.96 L 615.81 415.56 L 624.06 414.96 Q 629.76 414.36 632.31 411.44 Q 634.86 408.51 641.39 392.54 Q 647.91 376.56 653.01 363.44 Q 658.11 350.31 662.91 337.11 Q 667.71 323.91 668.61 320.76 Q 669.51 317.61 669.51 316.11 Q 669.51 312.81 666.14 311.91 Q 662.76 311.01 652.86 311.01 L 652.86 308.61 L 712.41 308.46 Q 727.41 308.46 732.89 308.99 Q 738.36 309.51 745.34 311.31 Q 752.31 313.11 757.79 319.04 Q 763.26 324.96 763.26 334.86 Q 763.26 346.11 753.66 353.09 Q 744.06 360.06 729.06 360.06 L 722.76 359.91 L 722.76 361.26 Q 737.16 361.26 747.14 368.09 Q 757.11 374.91 757.11 387.96 Q 757.11 397.56 751.94 404.39 Q 746.76 411.21 739.41 413.91 Q 732.06 416.61 721.19 417.36 Q 710.31 418.11 695.46 418.11 Z M 690.06 362.16 L 669.36 415.41 Q 674.91 415.41 680.61 415.34 Q 686.31 415.26 694.04 414.36 Q 701.76 413.46 708.29 402.29 Q 714.81 391.11 714.81 378.81 Q 714.81 371.46 712.94 367.26 Q 711.06 363.06 704.31 362.46 L 695.91 362.01 Z M 691.11 359.46 Q 705.21 359.46 710.91 357.44 Q 716.61 355.41 722.01 344.76 Q 727.41 334.11 727.41 322.71 Q 727.41 317.91 725.39 314.69 Q 723.36 311.46 718.71 311.46 L 710.16 311.16 Z M 849.39 375.06 Q 849.39 392.01 834.92 405.74 Q 820.44 419.46 799.59 419.46 Q 793.29 419.46 788.19 417.06 Q 783.09 414.66 777.32 408.51 Q 771.54 402.36 771.54 389.76 Q 771.54 373.11 785.87 359.24 Q 800.19 345.36 821.34 345.36 Q 827.94 345.36 832.74 347.69 Q 837.54 350.01 841.89 354.66 Q 846.24 359.31 847.82 364.49 Q 849.39 369.66 849.39 375.06 Z M 828.69 353.01 Q 828.69 350.61 827.57 349.26 Q 826.44 347.91 823.89 347.91 Q 821.19 347.91 818.04 351.59 Q 814.89 355.26 808.97 367.04 Q 803.04 378.81 797.64 392.39 Q 792.24 405.96 792.24 411.51 Q 792.24 414.36 793.44 415.79 Q 794.64 417.21 797.04 417.21 Q 799.59 417.21 802.44 413.91 Q 805.29 410.61 810.77 400.11 Q 816.24 389.61 822.47 374.39 Q 828.69 359.16 828.69 353.01 Z M 932.06 345.36 Q 939.11 345.36 944.14 349.79 Q 949.16 354.21 949.16 363.06 Q 949.16 367.11 947.51 371.69 Q 945.86 376.26 943.46 381.51 Q 941.06 386.76 934.91 398.61 Q 928.76 410.46 928.76 412.56 Q 928.76 413.76 929.36 414.36 Q 929.96 414.96 931.16 414.96 Q 932.66 414.96 935.21 413.16 Q 937.76 411.36 942.19 406.41 Q 946.61 401.46 951.56 391.56 L 953.51 392.61 Q 946.61 404.91 940.24 412.19 Q 933.86 419.46 922.31 419.46 Q 914.36 419.46 910.31 414.66 Q 906.26 409.86 906.26 402.81 Q 906.26 398.01 907.31 395.01 Q 908.36 392.01 913.69 381.21 Q 919.01 370.41 922.46 363.51 Q 925.91 356.61 925.91 352.71 Q 925.91 351.21 925.31 350.54 Q 924.71 349.86 923.36 349.86 Q 921.56 349.86 918.79 352.11 Q 916.01 354.36 912.26 359.31 Q 908.51 364.26 904.46 372.81 L 882.71 417.96 L 853.46 417.96 L 878.96 360.96 Q 879.86 358.71 881.06 355.94 Q 882.26 353.16 882.26 351.96 Q 882.26 350.91 881.81 350.46 Q 881.36 350.01 880.46 350.01 Q 878.36 350.01 875.66 351.89 Q 872.96 353.76 870.34 356.76 Q 867.71 359.76 864.64 364.34 Q 861.56 368.91 858.56 373.86 L 856.61 372.96 Q 863.81 360.36 870.79 352.86 Q 877.76 345.36 887.96 345.36 Q 895.16 345.36 899.29 349.79 Q 903.41 354.21 903.41 362.16 Q 903.41 365.76 902.74 368.69 Q 902.06 371.61 901.61 373.41 Q 908.36 359.91 914.59 352.64 Q 920.81 345.36 932.06 345.36 Z M 1034.38 346.86 L 1032.43 351.66 L 1015.63 351.66 L 992.98 406.41 Q 991.93 408.96 991.63 410.16 Q 991.33 411.36 991.33 412.56 Q 991.33 413.91 991.93 414.59 Q 992.53 415.26 993.58 415.26 Q 995.53 415.26 998.16 413.54 Q 1000.78 411.81 1003.63 408.89 Q 1006.48 405.96 1009.56 401.61 Q 1012.63 397.26 1014.58 393.51 L 1016.53 394.56 Q 1009.18 406.86 1002.36 413.16 Q 995.53 419.46 985.48 419.46 Q 976.78 419.46 972.43 414.29 Q 968.08 409.11 968.08 401.91 Q 968.08 398.61 968.83 396.14 Q 969.58 393.66 971.38 389.01 L 986.98 351.66 L 974.08 351.66 L 976.03 346.86 L 988.93 346.86 L 1000.93 317.91 L 1029.88 317.91 L 1017.73 346.86 Z M 1058.85 383.01 Q 1069.35 381.81 1077.9 371.24 Q 1086.45 360.66 1086.45 352.56 Q 1086.45 350.31 1085.85 349.11 Q 1085.25 347.91 1083.15 347.91 Q 1079.85 347.91 1076.55 351.51 Q 1073.25 355.11 1069.5 361.56 Q 1065.75 368.01 1063.12 373.34 Q 1060.5 378.66 1058.85 383.01 Z M 1058.4 384.66 Q 1057.5 387.51 1056.75 392.09 Q 1056 396.66 1056 399.66 Q 1056 408.06 1058.32 411.51 Q 1060.65 414.96 1065.15 414.96 Q 1068.6 414.96 1071.3 414.14 Q 1074 413.31 1077.6 411.21 Q 1081.2 409.11 1085.17 405.06 Q 1089.15 401.01 1091.55 397.11 L 1093.65 398.61 Q 1087.35 407.46 1078.8 413.46 Q 1070.25 419.46 1058.1 419.46 Q 1047 419.46 1037.32 412.79 Q 1027.65 406.11 1027.65 393.21 Q 1027.65 375.21 1043.92 360.29 Q 1060.2 345.36 1082.25 345.36 Q 1092.6 345.36 1099.2 350.09 Q 1105.8 354.81 1105.8 360.96 Q 1105.8 372.81 1092 378.74 Q 1078.2 384.66 1058.4 384.66 Z M 1150.37 380.01 L 1135.07 417.96 L 1105.97 417.96 Q 1110.02 408.06 1116.17 393.06 Q 1122.32 378.06 1130.34 358.19 Q 1138.37 338.31 1141.74 329.76 Q 1145.12 321.21 1145.94 318.81 Q 1146.77 316.41 1146.77 314.76 Q 1146.77 311.31 1141.82 311.31 L 1135.22 311.01 L 1135.22 308.61 L 1179.47 308.61 L 1151.12 378.06 Q 1159.07 377.16 1163.12 372.21 Q 1167.02 365.31 1170.24 360.29 Q 1173.47 355.26 1179.92 350.31 Q 1186.37 345.36 1193.57 345.36 Q 1200.17 345.36 1203.99 348.74 Q 1207.82 352.11 1207.82 357.81 Q 1207.82 363.81 1203.77 367.86 Q 1199.72 371.91 1194.02 371.91 Q 1188.92 371.91 1185.47 368.76 Q 1182.02 365.61 1182.02 360.66 Q 1182.02 357.06 1184.12 353.91 Q 1186.37 351.51 1188.77 348.96 Q 1188.17 348.66 1187.72 348.66 Q 1183.82 348.66 1180.37 354.21 Q 1177.82 358.86 1175.42 363.51 Q 1172.57 368.16 1170.02 370.26 Q 1167.47 372.36 1161.17 376.41 Q 1166.42 376.71 1171.67 378.74 Q 1176.92 380.76 1179.54 383.54 Q 1182.17 386.31 1182.84 388.94 Q 1183.52 391.56 1183.52 394.41 Q 1183.52 398.01 1182.54 402.06 Q 1181.57 406.11 1180.52 410.31 Q 1180.52 411.81 1181.12 412.64 Q 1181.72 413.46 1182.92 413.46 Q 1186.22 413.46 1190.12 408.81 Q 1194.02 404.16 1195.97 401.39 Q 1197.92 398.61 1200.32 394.56 L 1202.12 395.61 Q 1195.07 408.36 1188.24 413.91 Q 1181.42 419.46 1170.02 419.46 Q 1162.82 419.46 1157.49 414.96 Q 1152.17 410.46 1152.17 402.96 Q 1152.17 400.56 1154.57 393.14 Q 1156.97 385.71 1156.97 384.51 Q 1156.97 381.36 1155.69 380.69 Q 1154.42 380.01 1150.37 380.01 Z M 1314.34 346.86 L 1288.39 403.86 Q 1287.94 404.76 1286.89 407.76 Q 1285.84 410.76 1285.84 411.51 Q 1285.84 412.71 1286.36 413.39 Q 1286.89 414.06 1287.94 414.06 Q 1290.04 414.06 1293.79 411.06 Q 1297.54 408.06 1301.81 402.59 Q 1306.09 397.11 1309.54 390.36 L 1311.49 391.26 Q 1307.29 399.06 1302.86 405.14 Q 1298.44 411.21 1291.84 415.34 Q 1285.24 419.46 1275.94 419.46 Q 1268.44 419.46 1264.69 415.34 Q 1260.94 411.21 1260.94 402.96 Q 1255.09 411.66 1249.76 415.56 Q 1244.44 419.46 1236.04 419.46 Q 1227.04 419.46 1221.26 413.69 Q 1215.49 407.91 1215.49 398.61 Q 1215.49 380.91 1231.76 363.14 Q 1248.04 345.36 1267.84 345.36 Q 1272.49 345.36 1276.24 347.61 Q 1279.99 349.86 1279.99 354.66 L 1279.54 358.26 L 1284.79 346.86 Z M 1278.04 354.96 Q 1278.04 352.56 1277.06 351.44 Q 1276.09 350.31 1273.99 350.31 Q 1271.14 350.31 1267.46 354.81 Q 1263.79 359.31 1257.94 370.56 Q 1252.09 381.81 1246.24 395.46 Q 1240.39 409.11 1240.39 413.16 Q 1240.39 414.51 1240.99 415.26 Q 1241.59 416.01 1242.79 416.01 Q 1247.44 416.01 1251.64 411.44 Q 1255.84 406.86 1258.09 403.64 Q 1260.34 400.41 1264.01 392.69 Q 1267.69 384.96 1272.86 372.81 Q 1278.04 360.66 1278.04 354.96 Z"
     transform="matrix(1.02538, -0.001112, -0.222878, 1.107559, 80.429958, -37.665216)"
     style="fill:#455a64;fill-opacity:1"
     id="path3" />
</svg>
