<svg xmlns="http://www.w3.org/2000/svg" xmlns:xlink="http://www.w3.org/1999/xlink" version="1.1" width="2016" height="982" viewBox="0 0 2016 982" xml:space="preserve">
<desc>Created with Fabric.js 5.3.0</desc>
<defs>
</defs>
<rect x="0" y="0" width="100%" height="100%" fill="#FFFFFF"/>
<g transform="matrix(5.79 0 0 5.79 1164.88 488.09)" style="">
		<g xml:space="preserve" font-family="Signika" font-size="20" font-style="normal" font-weight="700" style="stroke: none; stroke-width: 1; stroke-dasharray: none; stroke-linecap: butt; stroke-dashoffset: 0; stroke-linejoin: miter; stroke-miterlimit: 4; fill: rgb(255,255,255); fill-rule: nonzero; opacity: 1; white-space: pre;"><g><g><path d="M-40.49-7.28L-40.35-7.42Q-39.15-7.44-37.97-7.47Q-36.80-7.49-35.74-7.49L-35.74-7.49Q-34.34-7.49-33.29-7.11Q-32.24-6.73-31.65-5.92Q-31.06-5.12-31.06-3.86L-31.06-3.86Q-31.06-3.13-31.39-2.49Q-31.73-1.85-32.28-1.43Q-32.83-1.01-33.50-0.93L-33.50-0.93L-33.50-1.25Q-32.69-1.20-31.98-0.69Q-31.28-0.18-30.85 0.62Q-30.42 1.42-30.42 2.35L-30.42 2.35Q-30.42 3.75-31.03 4.65Q-31.64 5.54-32.77 5.96Q-33.89 6.39-35.42 6.39L-35.42 6.39Q-36.58 6.39-37.82 6.37Q-39.07 6.34-40.35 6.32L-40.35 6.32L-40.49 6.18L-40.49-7.28ZM-37.34-5.25L-37.34 4.17Q-36.85 4.15-36.41 4.15Q-35.97 4.15-35.65 4.15L-35.65 4.15Q-35.04 4.15-34.64 3.97Q-34.25 3.79-34.03 3.50Q-33.81 3.21-33.72 2.87Q-33.63 2.53-33.63 2.22L-33.63 2.22Q-33.63 1.78-33.80 1.33Q-33.98 0.87-34.42 0.56Q-34.87 0.25-35.67 0.25L-35.67 0.25L-38.54 0.25L-38.54-2.02L-35.90-2.02Q-35.22-2.02-34.85-2.26Q-34.48-2.51-34.33-2.88Q-34.18-3.25-34.18-3.64L-34.18-3.64Q-34.18-4.04-34.33-4.40Q-34.48-4.76-34.85-5.00Q-35.23-5.23-35.90-5.23L-35.90-5.23Q-36.16-5.23-36.56-5.24Q-36.96-5.24-37.34-5.25L-37.34-5.25Z"/><path d="M-25.66-0.56L-25.66-0.56Q-25.66 0.23-25.57 1.05Q-25.49 1.87-25.22 2.57Q-24.96 3.26-24.44 3.69Q-23.92 4.12-23.06 4.12L-23.06 4.12Q-22.19 4.12-21.67 3.69Q-21.16 3.26-20.89 2.57Q-20.63 1.87-20.54 1.05Q-20.46 0.23-20.46-0.56L-20.46-0.56Q-20.46-1.35-20.54-2.17Q-20.63-2.98-20.89-3.67Q-21.16-4.37-21.67-4.80Q-22.19-5.22-23.06-5.22L-23.06-5.22Q-23.92-5.22-24.44-4.80Q-24.96-4.37-25.22-3.67Q-25.49-2.98-25.57-2.17Q-25.66-1.35-25.66-0.56ZM-29-0.56L-29-0.56Q-29-2.70-28.36-4.30Q-27.71-5.90-26.39-6.78Q-25.08-7.67-23.06-7.67L-23.06-7.67Q-21.54-7.67-20.42-7.16Q-19.30-6.65-18.56-5.71Q-17.83-4.77-17.47-3.46Q-17.11-2.15-17.11-0.56L-17.11-0.56Q-17.11 1.59-17.76 3.20Q-18.41 4.80-19.72 5.69Q-21.04 6.57-23.06 6.57L-23.06 6.57Q-24.58 6.57-25.70 6.06Q-26.82 5.55-27.55 4.61Q-28.28 3.66-28.64 2.35Q-29 1.04-29-0.56Z"/><path d="M-14.87 6.28L-14.87-7.33Q-14.49-7.41-13.89-7.45Q-13.29-7.49-12.98-7.49L-12.98-7.49Q-12.67-7.49-12.16-7.47Q-11.64-7.45-11.12-7.38L-11.12-7.38L-11.93-3.75L-12.14-3.67Q-12.06-2.82-12.01-1.75Q-11.95-0.67-11.92 0.40Q-11.89 1.47-11.89 2.30L-11.89 2.30L-11.89 6.28Q-12.28 6.35-12.66 6.37Q-13.04 6.39-13.34 6.39L-13.34 6.39Q-13.63 6.39-14.06 6.37Q-14.49 6.35-14.87 6.28L-14.87 6.28ZM-7.78 6.28L-10.94-0.88Q-11.27-1.65-11.57-2.39Q-11.86-3.13-12.06-3.71L-12.06-3.71L-13.54-5.42L-11.12-7.38L-8.04-0.24Q-7.66 0.64-7.34 1.44Q-7.01 2.24-6.79 2.80L-6.79 2.80L-5.17 4.55L-7.78 6.28ZM-4.14-7.51L-4-7.38L-4 6.23Q-4.25 6.28-4.63 6.32Q-5 6.36-5.36 6.38Q-5.71 6.39-5.92 6.39L-5.92 6.39Q-6.23 6.39-6.74 6.37Q-7.25 6.35-7.78 6.28L-7.78 6.28L-6.94 2.83L-6.71 2.76Q-6.79 1.83-6.85 0.72Q-6.91-0.39-6.94-1.42Q-6.96-2.45-6.96-3.14L-6.96-3.14L-6.96-5.58Q-6.96-6.65-6.53-7.08Q-6.09-7.51-5.17-7.51L-5.17-7.51L-4.14-7.51Z"/><path d="M-0.23-4.72L-2.30-4.72Q-2.37-5.08-2.39-5.42Q-2.41-5.77-2.41-6.04L-2.41-6.04Q-2.41-6.32-2.39-6.67Q-2.37-7.02-2.30-7.38L-2.30-7.38L7.60-7.38Q7.68-7.13 7.72-6.80Q7.76-6.46 7.76-6.15L7.76-6.15Q7.76-5.37 7.36-5.05Q6.95-4.72 6.09-4.72L6.09-4.72L5.50-4.72Q5.28-4.72 4.88-4.73Q4.47-4.74 4.24-4.74L4.24-4.74L1.03-4.74Q0.81-4.74 0.40-4.73Q-0.01-4.72-0.23-4.72L-0.23-4.72ZM1.03 6.28L1.03-3.26Q1.03-3.67 1.04-4.00Q1.05-4.32 1.05-4.74L1.05-4.74L1.05-6.06L4.22-6.06L4.22-4.74Q4.22-4.32 4.23-4.00Q4.24-3.67 4.24-3.26L4.24-3.26L4.24 6.28Q3.83 6.35 3.40 6.37Q2.97 6.39 2.64 6.39L2.64 6.39Q2.30 6.39 1.87 6.37Q1.44 6.35 1.03 6.28L1.03 6.28Z"/><path d="M9.21 4.47L9.21-7.24L9.35-7.38L12.36-7.38L12.36-4.75Q12.36-4.33 12.37-4.00Q12.38-3.67 12.38-3.26L12.38-3.26L12.38 2.24Q12.38 2.63 12.37 2.95Q12.36 3.27 12.36 3.68L12.36 3.68L12.36 6.33L11.05 6.33Q10.19 6.33 9.70 5.83Q9.21 5.34 9.21 4.47L9.21 4.47ZM13.73-1.89L16.78-1.89Q16.89-1.60 16.93-1.22Q16.97-0.85 16.97-0.59L16.97-0.59Q16.97-0.31 16.93 0.05Q16.89 0.41 16.78 0.72L16.78 0.72L13.73 0.72Q13.48 0.72 13.02 0.71Q12.56 0.71 12.07 0.70Q11.59 0.69 11.27 0.68L11.27 0.68L11.27-1.85Q11.59-1.86 12.07-1.87Q12.56-1.88 13.02-1.89Q13.48-1.89 13.73-1.89L13.73-1.89ZM11.27-7.38L17.97-7.38Q18.05-7.02 18.06-6.70Q18.08-6.39 18.08-6.12L18.08-6.12Q18.08-5.85 18.02-5.45Q17.95-5.06 17.82-4.70L17.82-4.70L13.73-4.70Q13.48-4.70 13.02-4.70Q12.56-4.71 12.07-4.72Q11.59-4.73 11.27-4.74L11.27-4.74L11.27-7.38ZM13.84 3.66L18.47 3.66Q18.47 4.98 18.06 5.66Q17.65 6.33 16.37 6.33L16.37 6.33L11.27 6.33L11.27 3.76Q11.92 3.73 12.51 3.70Q13.11 3.66 13.84 3.66L13.84 3.66Z"/><path d="M20.69 6.28L20.69-7.38Q21.07-7.45 21.54-7.47Q22-7.49 22.29-7.49L22.29-7.49Q22.61-7.49 23.06-7.47Q23.50-7.45 23.90-7.38L23.90-7.38L23.90 6.28Q23.50 6.35 23.06 6.37Q22.61 6.39 22.29 6.39L22.29 6.39Q22 6.39 21.54 6.37Q21.07 6.35 20.69 6.28L20.69 6.28ZM31.45 5.49L31.45 5.49Q31.14 5.95 30.55 6.20Q29.97 6.45 29.33 6.45L29.33 6.45Q28.46 6.45 28.07 6Q27.68 5.55 27.39 4.63L27.39 4.63L26.64 2.29Q26.34 1.34 25.91 0.94Q25.48 0.54 24.77 0.54L24.77 0.54Q24.32 0.54 23.68 0.59Q23.03 0.64 22.27 0.71L22.27 0.71L22.27-1.25L26.25-1.25Q27.38-1.25 28.03-0.93Q28.68-0.61 29.03-0.07Q29.38 0.47 29.59 1.14L29.59 1.14L30.41 3.61Q30.61 4.19 30.76 4.53Q30.90 4.86 31.06 5.07Q31.22 5.28 31.45 5.49ZM25.31-2.80L27.20-6.39Q27.49-6.95 27.82-7.22Q28.15-7.49 28.85-7.49L28.85-7.49Q29.24-7.49 29.77-7.47Q30.30-7.44 30.77-7.40L30.77-7.40L30.94-7.18L28.52-2.59Q27.95-1.51 27.07-0.89Q26.18-0.28 24.70-0.28L24.70-0.28L22.27-0.28L22.27-2.08Q22.80-2.09 23.34-2.10Q23.88-2.11 24.40-2.12L24.40-2.12Q24.78-2.12 24.94-2.26Q25.10-2.40 25.31-2.80L25.31-2.80Z"/><path d="M31.75 6.03L36.17-7.38Q36.55-7.44 37.09-7.47Q37.62-7.49 38.02-7.49L38.02-7.49Q38.40-7.49 38.95-7.47Q39.49-7.44 39.87-7.36L39.87-7.36L44.17 6.07Q43.84 6.26 43.31 6.36Q42.79 6.45 42.34 6.45L42.34 6.45Q41.58 6.45 41.15 6.10Q40.72 5.75 40.43 4.72L40.43 4.72L39-0.35Q38.77-1.19 38.47-2.33Q38.16-3.46 37.90-4.46L37.90-4.46L37.78-4.46Q37.68-3.91 37.51-3.23Q37.34-2.55 37.16-1.87Q36.97-1.20 36.81-0.65L36.81-0.65L34.77 6.30Q34.47 6.37 34.13 6.39Q33.79 6.41 33.41 6.41L33.41 6.41Q33.05 6.41 32.59 6.36Q32.14 6.31 31.87 6.21L31.87 6.21L31.75 6.03ZM39.26 3.42L36.41 3.42Q36.27 3.42 36.09 3.42Q35.90 3.41 35.72 3.41Q35.53 3.40 35.39 3.40L35.39 3.40L33.71 3.40L34.68 0.91L36.16 0.91Q36.30 0.91 36.48 0.91Q36.66 0.90 36.84 0.90Q37.02 0.89 37.16 0.89L37.16 0.89L38.62 0.89Q38.77 0.89 38.95 0.90Q39.12 0.90 39.30 0.91Q39.49 0.91 39.63 0.91L39.63 0.91L41.16 0.91L41.97 3.40L40.29 3.40Q40.15 3.40 39.96 3.41Q39.77 3.41 39.59 3.42Q39.40 3.42 39.26 3.42L39.26 3.42Z"/></g></g></g>
</g>
<g transform="matrix(2.87 0 0 2.87 732.56 490.84)">
<path style="stroke: none; stroke-width: 1; stroke-dasharray: none; stroke-linecap: butt; stroke-dashoffset: 0; stroke-linejoin: miter; stroke-miterlimit: 4; fill: rgb(20,114,180); fill-rule: nonzero; opacity: 1;" transform=" translate(-140.51, -186.77)" d="M 171.75085 186.20567 Q 184.52771 191.49034 184.52771 205.13683 Q 184.52771 217.6461 175.76453 224.80382 Q 166.59998000000002 232.29601 149.74255 232.29601 L 143.58826 232.29601 L 143.58826 141.25254999999999 L 148.73914 141.25254999999999 Q 165.19519 141.25254999999999 173.89148 149.48057999999997 Q 181.85193 156.97275999999997 181.85193 168.94687999999996 Q 181.85193 180.85410999999996 171.95154000000002 186.20566999999997 z M 96.494507 141.25255 L 132.48376 141.25255 L 132.48376 232.16222000000002 L 96.494507 232.16222000000002 Z" stroke-linecap="round"/>
</g>
</svg>