<?xml version="1.0" standalone="no"?>
<!DOCTYPE svg PUBLIC "-//W3C//DTD SVG 20010904//EN"
 "http://www.w3.org/TR/2001/REC-SVG-20010904/DTD/svg10.dtd">
<svg version="1.0" xmlns="http://www.w3.org/2000/svg"
 width="1000.000000pt" height="1000.000000pt" viewBox="0 0 1000.000000 1000.000000"
 preserveAspectRatio="xMidYMid meet">

<g transform="translate(0.000000,1000.000000) scale(0.100000,-0.100000)"
fill="#000000" stroke="none">
<path d="M0 5000 l0 -5000 5000 0 5000 0 0 5000 0 5000 -5000 0 -5000 0 0
-5000z m8385 1181 c51 -23 102 -81 110 -123 3 -18 4 -506 3 -1084 l-3 -1050
-25 -37 c-13 -20 -43 -46 -65 -59 l-40 -23 -3365 0 -3365 0 -40 23 c-22 13
-52 39 -65 59 l-25 37 -3 1050 c-1 578 0 1066 3 1084 8 42 59 100 110 123 38
18 171 19 3385 19 3214 0 3347 -1 3385 -19z"/>
<path d="M2623 5906 c-276 -53 -519 -230 -643 -468 -87 -166 -116 -301 -107
-486 7 -143 31 -233 97 -367 91 -183 235 -324 425 -415 146 -70 218 -85 405
-84 139 0 164 3 243 27 318 98 552 339 638 657 33 121 33 338 1 459 -54 202
-157 359 -316 486 -95 77 -228 145 -341 175 -103 28 -300 35 -402 16z m152
-346 l0 -325 -214 -3 -213 -2 6 47 c18 127 86 322 142 407 70 106 134 164 211
192 72 26 68 45 68 -316z m144 293 c91 -53 177 -169 235 -316 27 -68 67 -209
61 -215 -2 -2 -40 17 -84 43 -45 25 -86 43 -91 40 -6 -3 -10 -44 -10 -91 l0
-84 -115 0 -115 0 0 331 0 331 38 -7 c20 -3 57 -18 81 -32z m-347 -33 c-28
-28 -65 -71 -83 -96 -66 -97 -133 -276 -160 -429 l-11 -65 -95 0 c-71 0 -94
-3 -90 -12 3 -10 104 -13 463 -13 l459 0 5 82 5 81 297 -161 c164 -89 298
-164 298 -167 0 -3 -134 -78 -298 -167 l-297 -162 -5 82 -5 82 -570 0 c-649 0
-582 -11 -584 92 l-1 53 447 2 c346 2 447 6 451 16 3 9 -91 12 -448 12 l-452
0 7 53 c32 255 177 491 390 634 81 54 96 61 200 99 128 47 138 44 77 -16z
m504 20 c310 -105 555 -400 590 -711 l7 -62 -54 29 c-348 190 -375 206 -377
232 -4 44 -42 170 -76 252 -42 99 -93 175 -160 239 -65 61 -56 64 70 21z m599
-907 c-30 -319 -210 -586 -490 -726 -63 -31 -192 -77 -217 -77 -6 0 19 31 54
68 73 77 112 141 157 254 34 83 68 217 75 287 l4 45 203 112 c112 62 208 113
213 113 4 1 5 -34 1 -76z m-1351 -195 c10 -61 33 -157 51 -213 54 -164 105
-255 197 -345 29 -29 44 -50 36 -50 -31 0 -175 52 -237 86 -227 125 -394 344
-449 592 l-10 42 198 0 197 0 17 -112z m454 -255 l-3 -368 -33 3 c-118 9 -251
162 -327 375 -32 90 -75 280 -75 333 l0 24 220 0 220 0 -2 -367z m252 283 c0
-47 4 -87 9 -90 5 -3 48 16 97 43 49 26 91 47 93 45 2 -2 -2 -32 -8 -66 -59
-311 -217 -548 -388 -583 l-33 -7 0 371 0 371 115 0 115 0 0 -84z"/>
<path d="M4879 5490 c-148 -26 -232 -128 -232 -280 0 -125 58 -221 160 -266
61 -27 195 -25 260 5 105 47 156 131 157 256 0 88 -18 143 -68 202 -55 65
-175 101 -277 83z m155 -154 c74 -56 75 -188 2 -256 -21 -19 -40 -25 -89 -28
-99 -5 -152 39 -164 135 -8 74 22 137 79 164 58 27 125 21 172 -15z"/>
<path d="M4080 5204 l0 -286 173 4 c192 4 233 16 278 79 42 59 35 157 -15 198
-13 11 -12 17 6 52 42 81 7 178 -77 219 -36 17 -62 20 -203 20 l-162 0 0 -286z
m321 128 c6 -17 4 -27 -11 -42 -16 -16 -34 -20 -95 -20 l-75 0 0 45 0 46 86
-3 c80 -3 87 -5 95 -26z m13 -208 c22 -57 -4 -74 -113 -74 l-81 0 0 45 0 45
94 0 c76 0 95 -3 100 -16z"/>
<path d="M5340 5205 l0 -286 68 3 67 3 5 162 5 161 109 -164 109 -164 68 0 69
0 0 285 0 285 -70 0 -70 0 -2 -162 -3 -163 -109 163 -109 162 -69 0 -68 0 0
-285z"/>
<path d="M5932 5428 l3 -63 83 -3 82 -3 0 -219 0 -220 70 0 70 0 0 220 0 219
83 3 82 3 3 63 3 62 -241 0 -241 0 3 -62z"/>
<path d="M6500 5205 l0 -285 210 0 210 0 0 65 0 65 -140 0 -140 0 0 45 0 44
113 3 112 3 3 63 3 62 -116 0 -115 0 0 45 0 45 140 0 140 0 0 65 0 65 -210 0
-210 0 0 -285z"/>
<path d="M7022 5208 l3 -283 67 -3 67 -3 3 136 3 136 95 -135 95 -135 83 -1
c45 0 82 2 82 5 0 2 -45 67 -101 144 l-101 140 96 136 c53 74 96 138 96 140 0
3 -37 5 -83 5 l-83 0 -90 -131 -89 -132 -3 132 -3 131 -69 0 -70 0 2 -282z"/>
<path d="M7657 5223 c-58 -148 -109 -276 -113 -285 -5 -16 2 -18 68 -18 l74 0
21 58 20 57 105 3 105 3 23 -61 22 -60 75 0 c41 0 73 4 71 9 -1 5 -52 133
-113 285 l-110 276 -71 0 -70 0 -107 -267z m227 -30 c7 -22 5 -23 -48 -23 -31
0 -56 3 -56 8 0 4 12 40 27 81 l27 74 22 -59 c12 -32 25 -69 28 -81z"/>
<path d="M4720 4625 l0 -115 60 0 c53 0 60 2 60 20 0 16 -7 20 -35 20 l-35 0
0 95 c0 95 0 95 -25 95 l-25 0 0 -115z"/>
<path d="M5115 4731 c-37 -16 -58 -50 -63 -101 -4 -46 -2 -52 31 -85 30 -30
42 -35 81 -35 36 0 52 6 78 29 30 27 33 35 33 85 0 47 -4 60 -26 82 -29 28
-97 41 -134 25z m95 -51 c46 -46 17 -130 -45 -130 -39 0 -69 33 -69 75 0 65
70 99 114 55z"/>
<path d="M5555 4728 c-38 -20 -55 -51 -55 -101 0 -27 5 -57 10 -68 23 -41 119
-65 149 -36 11 10 14 10 18 0 3 -7 13 -13 24 -13 17 0 19 8 19 60 l0 60 -55 0
c-42 0 -55 -3 -55 -15 0 -10 10 -15 31 -15 23 0 30 -4 27 -17 -4 -22 -47 -38
-80 -30 -25 7 -48 43 -48 76 0 10 9 30 21 45 23 30 68 35 93 11 18 -19 30 -19
46 0 10 12 6 18 -22 35 -36 22 -91 26 -123 8z"/>
<path d="M5950 4625 l0 -115 25 0 25 0 0 115 0 115 -25 0 -25 0 0 -115z"/>
<path d="M6262 4724 c-16 -11 -22 -25 -22 -50 0 -33 4 -37 54 -59 63 -28 76
-43 52 -60 -20 -15 -55 -8 -63 11 -6 17 -39 18 -49 2 -12 -20 43 -58 84 -58
56 0 84 24 80 68 -3 37 -8 42 -83 74 -16 7 -30 20 -30 28 0 20 48 25 64 7 11
-14 51 -12 51 2 -1 42 -94 66 -138 35z"/>
<path d="M6610 4721 c0 -14 8 -21 28 -23 l27 -3 3 -92 c2 -85 4 -93 22 -93 18
0 20 7 20 95 l0 95 30 0 c23 0 30 4 30 20 0 18 -7 20 -80 20 -72 0 -80 -2 -80
-19z"/>
<path d="M6990 4625 c0 -108 1 -115 20 -115 19 0 20 7 20 115 0 108 -1 115
-20 115 -19 0 -20 -7 -20 -115z"/>
<path d="M7314 4721 c-59 -36 -68 -137 -15 -185 22 -20 80 -31 116 -22 26 7
65 39 65 55 0 19 -33 20 -57 1 -14 -11 -36 -20 -49 -20 -59 0 -86 86 -41 128
29 27 57 28 90 2 14 -11 32 -17 41 -14 18 7 18 7 10 29 -17 43 -108 58 -160
26z"/>
</g>
</svg>
