<svg xmlns="http://www.w3.org/2000/svg" xmlns:xlink="http://www.w3.org/1999/xlink" version="1.1" width="2016" height="982" viewBox="0 0 2016 982" xml:space="preserve">
<desc>Created with Fabric.js 5.3.0</desc>
<defs>
</defs>
<rect x="0" y="0" width="100%" height="100%" fill="#FFFFFF"/>
<g transform="matrix(5.79 0 0 5.79 1128.23 490.98)" style="">
		<g xml:space="preserve" font-family="Signika" font-size="20" font-style="normal" font-weight="700" style="stroke: none; stroke-width: 1; stroke-dasharray: none; stroke-linecap: butt; stroke-dashoffset: 0; stroke-linejoin: miter; stroke-miterlimit: 4; fill: rgb(255,255,255); fill-rule: nonzero; opacity: 1; white-space: pre;"><g><g><path d="M-31.97-0.56L-31.97-0.56Q-31.97 0.23-31.89 1.05Q-31.80 1.87-31.54 2.57Q-31.27 3.26-30.75 3.69Q-30.23 4.12-29.37 4.12L-29.37 4.12Q-28.50 4.12-27.98 3.69Q-27.47 3.26-27.20 2.57Q-26.94 1.87-26.86 1.05Q-26.77 0.23-26.77-0.56L-26.77-0.56Q-26.77-1.35-26.86-2.17Q-26.94-2.98-27.20-3.67Q-27.47-4.37-27.98-4.80Q-28.50-5.22-29.37-5.22L-29.37-5.22Q-30.23-5.22-30.75-4.80Q-31.27-4.37-31.54-3.67Q-31.80-2.98-31.89-2.17Q-31.97-1.35-31.97-0.56ZM-35.31-0.56L-35.31-0.56Q-35.31-2.70-34.66-4.30Q-34.02-5.90-32.70-6.78Q-31.39-7.67-29.37-7.67L-29.37-7.67Q-27.85-7.67-26.73-7.16Q-25.61-6.65-24.88-5.71Q-24.14-4.77-23.78-3.46Q-23.42-2.15-23.42-0.56L-23.42-0.56Q-23.42 1.59-24.07 3.20Q-24.72 4.80-26.04 5.69Q-27.35 6.57-29.37 6.57L-29.37 6.57Q-30.89 6.57-32.01 6.06Q-33.13 5.55-33.86 4.61Q-34.59 3.66-34.95 2.35Q-35.31 1.04-35.31-0.56Z"/><path d="M-21.18 6.28L-21.18-7.33Q-20.80-7.41-20.20-7.45Q-19.60-7.49-19.29-7.49L-19.29-7.49Q-18.98-7.49-18.47-7.47Q-17.95-7.45-17.43-7.38L-17.43-7.38L-18.24-3.75L-18.45-3.67Q-18.37-2.82-18.32-1.75Q-18.26-0.67-18.23 0.40Q-18.20 1.47-18.20 2.30L-18.20 2.30L-18.20 6.28Q-18.59 6.35-18.97 6.37Q-19.35 6.39-19.65 6.39L-19.65 6.39Q-19.94 6.39-20.37 6.37Q-20.80 6.35-21.18 6.28L-21.18 6.28ZM-14.09 6.28L-17.25-0.88Q-17.58-1.65-17.88-2.39Q-18.17-3.13-18.37-3.71L-18.37-3.71L-19.85-5.42L-17.43-7.38L-14.35-0.24Q-13.97 0.64-13.65 1.44Q-13.32 2.24-13.10 2.80L-13.10 2.80L-11.48 4.55L-14.09 6.28ZM-10.45-7.51L-10.31-7.38L-10.31 6.23Q-10.56 6.28-10.94 6.32Q-11.31 6.36-11.67 6.38Q-12.02 6.39-12.23 6.39L-12.23 6.39Q-12.54 6.39-13.05 6.37Q-13.56 6.35-14.09 6.28L-14.09 6.28L-13.25 2.83L-13.02 2.76Q-13.10 1.83-13.16 0.72Q-13.22-0.39-13.25-1.42Q-13.27-2.45-13.27-3.14L-13.27-3.14L-13.27-5.58Q-13.27-6.65-12.84-7.08Q-12.40-7.51-11.48-7.51L-11.48-7.51L-10.45-7.51Z"/><path d="M-6.54-4.72L-8.61-4.72Q-8.68-5.08-8.70-5.42Q-8.72-5.77-8.72-6.04L-8.72-6.04Q-8.72-6.32-8.70-6.67Q-8.68-7.02-8.61-7.38L-8.61-7.38L1.29-7.38Q1.37-7.13 1.41-6.80Q1.45-6.46 1.45-6.15L1.45-6.15Q1.45-5.37 1.04-5.05Q0.64-4.72-0.22-4.72L-0.22-4.72L-0.81-4.72Q-1.03-4.72-1.44-4.73Q-1.84-4.74-2.07-4.74L-2.07-4.74L-5.28-4.74Q-5.50-4.74-5.91-4.73Q-6.32-4.72-6.54-4.72L-6.54-4.72ZM-5.28 6.28L-5.28-3.26Q-5.28-3.67-5.27-4.00Q-5.26-4.32-5.26-4.74L-5.26-4.74L-5.26-6.06L-2.09-6.06L-2.09-4.74Q-2.09-4.32-2.08-4.00Q-2.07-3.67-2.07-3.26L-2.07-3.26L-2.07 6.28Q-2.48 6.35-2.91 6.37Q-3.34 6.39-3.67 6.39L-3.67 6.39Q-4.01 6.39-4.44 6.37Q-4.87 6.35-5.28 6.28L-5.28 6.28Z"/><path d="M2.90 4.47L2.90-7.24L3.04-7.38L6.05-7.38L6.05-4.75Q6.05-4.33 6.06-4.00Q6.07-3.67 6.07-3.26L6.07-3.26L6.07 2.24Q6.07 2.63 6.06 2.95Q6.05 3.27 6.05 3.68L6.05 3.68L6.05 6.33L4.74 6.33Q3.88 6.33 3.39 5.83Q2.90 5.34 2.90 4.47L2.90 4.47ZM7.42-1.89L10.47-1.89Q10.58-1.60 10.62-1.22Q10.66-0.85 10.66-0.59L10.66-0.59Q10.66-0.31 10.62 0.05Q10.58 0.41 10.47 0.72L10.47 0.72L7.42 0.72Q7.17 0.72 6.71 0.71Q6.25 0.71 5.76 0.70Q5.28 0.69 4.96 0.68L4.96 0.68L4.96-1.85Q5.28-1.86 5.76-1.87Q6.25-1.88 6.71-1.89Q7.17-1.89 7.42-1.89L7.42-1.89ZM4.96-7.38L11.66-7.38Q11.74-7.02 11.75-6.70Q11.77-6.39 11.77-6.12L11.77-6.12Q11.77-5.85 11.70-5.45Q11.64-5.06 11.51-4.70L11.51-4.70L7.42-4.70Q7.17-4.70 6.71-4.70Q6.25-4.71 5.76-4.72Q5.28-4.73 4.96-4.74L4.96-4.74L4.96-7.38ZM7.53 3.66L12.16 3.66Q12.16 4.98 11.75 5.66Q11.34 6.33 10.06 6.33L10.06 6.33L4.96 6.33L4.96 3.76Q5.61 3.73 6.20 3.70Q6.80 3.66 7.53 3.66L7.53 3.66Z"/><path d="M14.38 6.28L14.38-7.38Q14.76-7.45 15.22-7.47Q15.69-7.49 15.98-7.49L15.98-7.49Q16.30-7.49 16.74-7.47Q17.19-7.45 17.59-7.38L17.59-7.38L17.59 6.28Q17.19 6.35 16.74 6.37Q16.30 6.39 15.98 6.39L15.98 6.39Q15.69 6.39 15.22 6.37Q14.76 6.35 14.38 6.28L14.38 6.28ZM25.14 5.49L25.14 5.49Q24.83 5.95 24.24 6.20Q23.66 6.45 23.02 6.45L23.02 6.45Q22.15 6.45 21.76 6Q21.37 5.55 21.08 4.63L21.08 4.63L20.33 2.29Q20.03 1.34 19.60 0.94Q19.17 0.54 18.46 0.54L18.46 0.54Q18.01 0.54 17.36 0.59Q16.72 0.64 15.96 0.71L15.96 0.71L15.96-1.25L19.94-1.25Q21.07-1.25 21.72-0.93Q22.37-0.61 22.72-0.07Q23.07 0.47 23.28 1.14L23.28 1.14L24.10 3.61Q24.30 4.19 24.45 4.53Q24.59 4.86 24.75 5.07Q24.91 5.28 25.14 5.49ZM19-2.80L20.89-6.39Q21.18-6.95 21.51-7.22Q21.84-7.49 22.54-7.49L22.54-7.49Q22.93-7.49 23.46-7.47Q23.99-7.44 24.46-7.40L24.46-7.40L24.63-7.18L22.21-2.59Q21.64-1.51 20.75-0.89Q19.87-0.28 18.39-0.28L18.39-0.28L15.96-0.28L15.96-2.08Q16.49-2.09 17.03-2.10Q17.57-2.11 18.09-2.12L18.09-2.12Q18.47-2.12 18.63-2.26Q18.79-2.40 19-2.80L19-2.80Z"/><path d="M25.44 6.03L29.86-7.38Q30.24-7.44 30.77-7.47Q31.31-7.49 31.71-7.49L31.71-7.49Q32.09-7.49 32.63-7.47Q33.18-7.44 33.56-7.36L33.56-7.36L37.86 6.07Q37.53 6.26 37.00 6.36Q36.48 6.45 36.03 6.45L36.03 6.45Q35.27 6.45 34.84 6.10Q34.41 5.75 34.12 4.72L34.12 4.72L32.69-0.35Q32.46-1.19 32.15-2.33Q31.85-3.46 31.59-4.46L31.59-4.46L31.47-4.46Q31.37-3.91 31.20-3.23Q31.03-2.55 30.84-1.87Q30.66-1.20 30.50-0.65L30.50-0.65L28.46 6.30Q28.16 6.37 27.82 6.39Q27.48 6.41 27.10 6.41L27.10 6.41Q26.74 6.41 26.28 6.36Q25.83 6.31 25.56 6.21L25.56 6.21L25.44 6.03ZM32.95 3.42L30.10 3.42Q29.96 3.42 29.77 3.42Q29.59 3.41 29.40 3.41Q29.22 3.40 29.08 3.40L29.08 3.40L27.40 3.40L28.37 0.91L29.85 0.91Q29.99 0.91 30.17 0.91Q30.35 0.90 30.53 0.90Q30.71 0.89 30.85 0.89L30.85 0.89L32.31 0.89Q32.46 0.89 32.63 0.90Q32.81 0.90 32.99 0.91Q33.18 0.91 33.32 0.91L33.32 0.91L34.85 0.91L35.66 3.40L33.98 3.40Q33.84 3.40 33.65 3.41Q33.46 3.41 33.27 3.42Q33.09 3.42 32.95 3.42L32.95 3.42Z"/></g></g></g>
</g>
<g transform="matrix(0.98 0 0 0.98 871.66 490.99)">
<path style="stroke: none; stroke-width: 1; stroke-dasharray: none; stroke-linecap: butt; stroke-dashoffset: 0; stroke-linejoin: miter; stroke-miterlimit: 4; fill: rgb(20,114,180); fill-rule: nonzero; opacity: 1;" transform=" translate(-140.51, -186.77)" d="M 171.75085 186.20567 Q 184.52771 191.49034 184.52771 205.13683 Q 184.52771 217.6461 175.76453 224.80382 Q 166.59998000000002 232.29601 149.74255 232.29601 L 143.58826 232.29601 L 143.58826 141.25254999999999 L 148.73914 141.25254999999999 Q 165.19519 141.25254999999999 173.89148 149.48057999999997 Q 181.85193 156.97275999999997 181.85193 168.94687999999996 Q 181.85193 180.85410999999996 171.95154000000002 186.20566999999997 z M 96.494507 141.25255 L 132.48376 141.25255 L 132.48376 232.16222000000002 L 96.494507 232.16222000000002 Z" stroke-linecap="round"/>
</g>
</svg>